<svg width="2174" height="2174" viewBox="0 0 2174 2174" fill="none" xmlns="http://www.w3.org/2000/svg">
<g clip-path="url(#clip0_11402_238)">
<path d="M1086.98 9.83333e-06C1080.03 9.83333e-06 1073.09 2.66741 1067.79 7.98241L619.652 458.041C609.093 468.645 609.109 485.805 619.685 496.391L825.428 702.295C836.018 712.893 836.018 730.078 825.428 740.676L741.748 824.422C731.158 835.021 731.158 852.204 741.748 862.804L825.428 946.549C836.018 957.147 836.018 974.331 825.428 984.93L741.617 1068.81C731.079 1079.35 714.011 1079.41 703.4 1068.94L618.023 984.667C607.412 974.193 590.345 974.251 579.806 984.798L372.271 1192.5C361.681 1203.1 344.511 1203.1 333.919 1192.5L250.24 1108.75C239.65 1098.15 239.65 1080.97 250.24 1070.37L579.674 740.677C590.265 730.079 590.265 712.894 579.674 702.296L497.623 620.179C487.059 609.607 469.941 609.578 459.34 620.115L8.00918 1068.67C-2.64412 1079.26 -2.67322 1096.5 7.94318 1107.12L335.682 1435.12C346.246 1445.69 363.364 1445.72 373.965 1435.19L579.809 1230.61C590.358 1220.13 607.372 1220.1 617.957 1230.54L701.706 1313.2C712.317 1323.67 729.383 1323.61 739.92 1313.06L825.428 1227.49C836.018 1216.89 853.189 1216.89 863.78 1227.49L947.458 1311.23C958.048 1321.83 958.048 1339.01 947.458 1349.61L740.055 1557.18C729.465 1567.78 712.293 1567.78 701.703 1557.18L619.719 1475.13C609.129 1464.53 591.959 1464.53 581.369 1475.13L499.385 1557.18C488.795 1567.78 488.795 1584.96 499.385 1595.56L703.399 1799.74C713.989 1810.34 731.158 1810.34 741.748 1799.74L1191.52 1349.61C1202.11 1339.01 1219.28 1339.01 1229.87 1349.61L1437.27 1557.18C1447.86 1567.78 1447.86 1584.96 1437.27 1595.56L1352.03 1680.87C1341.39 1691.52 1324.11 1691.46 1313.55 1680.74L1229.87 1595.83C1219.3 1585.1 1202.03 1585.04 1191.38 1595.69L865.407 1921.93C854.843 1932.5 854.813 1949.64 865.341 1960.25L1069.49 2165.98C1080.07 2176.65 1097.29 2176.68 1107.9 2166.05L1189.82 2084.07C1200.41 2073.47 1200.41 2056.29 1189.82 2045.69L1106.14 1961.94C1095.55 1951.34 1095.55 1934.16 1106.14 1923.56L1191.52 1838.12C1202.11 1827.52 1219.28 1827.52 1229.87 1838.12L1313.55 1921.86C1324.14 1932.46 1341.31 1932.46 1351.9 1921.86L1677.94 1595.56C1688.53 1584.96 1688.53 1567.78 1677.94 1557.18L1472.23 1351.31C1461.64 1340.71 1461.64 1323.53 1472.23 1312.93L1554.21 1230.88C1564.81 1220.28 1581.97 1220.28 1592.57 1230.88L1798.27 1436.75C1808.86 1447.35 1826.03 1447.35 1836.62 1436.75L2166.06 1107.06C2176.65 1096.46 2176.65 1079.27 2166.06 1068.67L1716.29 618.551C1705.7 607.952 1688.53 607.952 1677.94 618.551L1594.3 702.252C1583.7 712.868 1583.72 730.085 1594.35 740.676L1923.6 1068.67C1934.24 1079.27 1934.26 1096.48 1923.65 1107.1L1838.32 1192.5C1827.73 1203.1 1810.56 1203.1 1799.97 1192.5L1592.57 984.93C1581.97 974.331 1564.81 974.331 1554.21 984.93L1470.54 1068.67C1459.95 1079.27 1442.78 1079.27 1432.19 1068.67L1348.51 984.93C1337.92 974.331 1337.92 957.147 1348.51 946.549L1433.88 861.108C1444.47 850.509 1444.47 833.326 1433.88 822.727L1351.83 740.61C1341.27 730.037 1341.24 712.906 1351.76 702.297L1556.04 496.424C1566.57 485.815 1566.54 468.683 1555.98 458.11L1106.18 7.94921C1100.88 2.64321 1093.93 -0.00589017 1086.98 9.83333e-06ZM1228.49 764.422C1228.92 764.422 1229.35 764.442 1229.79 764.483C1230.22 764.524 1230.65 764.588 1231.08 764.67C1231.5 764.754 1231.93 764.857 1232.35 764.981C1232.77 765.106 1233.18 765.249 1233.59 765.414C1234 765.58 1234.4 765.766 1234.79 765.973C1235.18 766.18 1235.57 766.408 1235.95 766.656C1236.32 766.905 1236.69 767.175 1237.04 767.465C1237.4 767.755 1237.74 768.065 1238.07 768.397L1302.79 833.162C1303.12 833.493 1303.43 833.838 1303.72 834.193C1304.01 834.549 1304.28 834.915 1304.53 835.291C1304.78 835.667 1305 836.053 1305.21 836.447C1305.42 836.841 1305.6 837.244 1305.77 837.652C1305.93 838.061 1306.08 838.475 1306.2 838.895C1306.32 839.314 1306.43 839.738 1306.51 840.166C1306.59 840.594 1306.66 841.025 1306.7 841.457C1306.74 841.89 1306.76 842.324 1306.76 842.758C1306.76 843.192 1306.74 843.626 1306.7 844.059C1306.66 844.491 1306.59 844.922 1306.51 845.35C1306.43 845.777 1306.33 846.202 1306.2 846.621C1306.08 847.041 1305.93 847.455 1305.77 847.864C1305.6 848.272 1305.42 848.675 1305.21 849.068C1305 849.462 1304.78 849.849 1304.53 850.225C1304.28 850.601 1304.01 850.967 1303.72 851.322C1303.43 851.678 1303.12 852.022 1302.79 852.354L1238.07 917.121C1237.74 917.453 1237.4 917.763 1237.04 918.053C1236.69 918.343 1236.32 918.611 1235.95 918.859C1235.57 919.108 1235.18 919.336 1234.79 919.543C1234.4 919.75 1234 919.936 1233.59 920.102C1233.18 920.268 1232.77 920.411 1232.35 920.535C1231.93 920.658 1231.5 920.763 1231.08 920.846C1230.65 920.93 1230.22 920.991 1229.79 921.032C1229.35 921.073 1228.92 921.094 1228.49 921.094C1228.05 921.094 1227.62 921.073 1227.19 921.032C1226.75 920.991 1226.32 920.928 1225.9 920.846C1225.47 920.764 1225.04 920.659 1224.63 920.535C1224.21 920.41 1223.79 920.267 1223.39 920.102C1222.98 919.936 1222.58 919.75 1222.18 919.543C1221.79 919.336 1221.4 919.108 1221.03 918.859C1220.65 918.611 1220.28 918.343 1219.93 918.053C1219.58 917.763 1219.23 917.453 1218.9 917.121L1154.18 852.354C1153.85 852.022 1153.54 851.678 1153.25 851.322C1152.96 850.967 1152.69 850.601 1152.45 850.225C1152.2 849.849 1151.97 849.462 1151.76 849.068C1151.56 848.675 1151.37 848.272 1151.21 847.864C1151.04 847.455 1150.9 847.041 1150.77 846.621C1150.65 846.202 1150.54 845.777 1150.46 845.35C1150.38 844.922 1150.32 844.491 1150.28 844.059C1150.24 843.626 1150.22 843.192 1150.22 842.758C1150.22 842.324 1150.24 841.89 1150.28 841.457C1150.32 841.025 1150.38 840.594 1150.46 840.166C1150.55 839.738 1150.65 839.314 1150.77 838.895C1150.89 838.475 1151.04 838.061 1151.21 837.652C1151.37 837.244 1151.56 836.841 1151.76 836.447C1151.97 836.053 1152.2 835.667 1152.45 835.291C1152.69 834.915 1152.96 834.549 1153.25 834.193C1153.54 833.838 1153.85 833.493 1154.18 833.162L1218.9 768.397C1219.23 768.065 1219.58 767.755 1219.93 767.465C1220.28 767.175 1220.65 766.905 1221.03 766.656C1221.4 766.408 1221.79 766.18 1222.18 765.973C1222.58 765.766 1222.98 765.58 1223.39 765.414C1223.79 765.248 1224.21 765.105 1224.63 764.981C1225.04 764.855 1225.47 764.753 1225.9 764.67C1226.32 764.586 1226.75 764.524 1227.19 764.483C1227.62 764.442 1228.05 764.422 1228.49 764.422ZM943.75 764.442C947.377 764.442 951.004 765.831 953.783 768.61L1017.9 832.73C1023.46 838.287 1023.46 847.236 1017.9 852.794L953.783 916.915C948.226 922.473 939.277 922.473 933.719 916.915L869.598 852.794C864.04 847.236 864.04 838.287 869.598 832.73L933.719 768.61C936.498 765.831 940.124 764.442 943.75 764.442Z" fill="#202124"/>
</g>
<defs>
<clipPath id="clip0_11402_238">
<rect width="2174" height="2174" fill="white"/>
</clipPath>
</defs>
</svg>
