<svg width="2174" height="2174" viewBox="0 0 2174 2174" fill="none" xmlns="http://www.w3.org/2000/svg">
<g clip-path="url(#clip0_11402_236)">
<path d="M1086.98 1.01687e-05C1080.03 0.0100102 1073.09 2.66741 1067.79 7.98241L619.655 458.041C609.096 468.645 609.111 485.805 619.685 496.391L825.427 702.295C836.017 712.893 836.017 730.078 825.427 740.676L741.748 824.422C731.158 835.021 731.158 852.204 741.748 862.803L825.427 946.549C836.017 957.147 836.017 974.331 825.427 984.93L741.617 1068.81C731.079 1079.35 714.011 1079.41 703.4 1068.94L618.023 984.666C607.412 974.192 590.345 974.25 579.806 984.797L372.271 1192.5C361.681 1203.1 344.51 1203.1 333.919 1192.5L250.239 1108.75C239.649 1098.15 239.649 1080.97 250.239 1070.37L579.674 740.676C590.265 730.078 590.265 712.893 579.674 702.295L497.623 620.178C487.059 609.606 469.941 609.577 459.34 620.114L8.00927 1068.67C-2.64393 1079.26 -2.67313 1096.5 7.94227 1107.12L335.681 1435.12C346.245 1445.69 363.363 1445.72 373.964 1435.19L579.808 1230.61C590.357 1220.13 607.371 1220.1 617.956 1230.54L701.704 1313.2C712.315 1323.67 729.382 1323.61 739.919 1313.06L825.427 1227.49C836.017 1216.89 853.188 1216.89 863.779 1227.49L947.456 1311.23C958.046 1321.83 958.046 1339.01 947.456 1349.61L740.054 1557.18C729.464 1567.78 712.292 1567.78 701.702 1557.18L619.718 1475.13C609.128 1464.53 591.958 1464.53 581.368 1475.13L499.384 1557.18C488.794 1567.78 488.794 1584.96 499.384 1595.56L703.398 1799.74C713.988 1810.34 731.157 1810.34 741.747 1799.74L1191.52 1349.61C1202.11 1339.01 1219.28 1339.01 1229.87 1349.61L1437.27 1557.18C1447.86 1567.78 1447.86 1584.96 1437.27 1595.56L1352.03 1680.87C1341.39 1691.52 1324.11 1691.46 1313.55 1680.74L1229.87 1595.83C1219.3 1585.1 1202.03 1585.04 1191.38 1595.69L865.406 1921.93C854.842 1932.5 854.812 1949.64 865.336 1960.25L1069.49 2165.98C1080.07 2176.65 1097.29 2176.68 1107.9 2166.05L1189.82 2084.07C1200.41 2073.47 1200.41 2056.29 1189.82 2045.69L1106.14 1961.94C1095.55 1951.34 1095.55 1934.16 1106.14 1923.56L1191.52 1838.12C1202.11 1827.52 1219.28 1827.52 1229.87 1838.12L1313.55 1921.86C1324.14 1932.46 1341.31 1932.46 1351.9 1921.86L1677.94 1595.56C1688.53 1584.96 1688.53 1567.78 1677.94 1557.18L1472.23 1351.31C1461.64 1340.71 1461.64 1323.53 1472.23 1312.93L1554.21 1230.88C1564.81 1220.28 1581.97 1220.28 1592.57 1230.88L1798.27 1436.75C1808.86 1447.35 1826.03 1447.35 1836.62 1436.75L2166.06 1107.06C2176.65 1096.46 2176.65 1079.27 2166.06 1068.67L1716.29 618.551C1705.7 607.952 1688.53 607.952 1677.94 618.551L1594.3 702.252C1583.7 712.868 1583.72 730.085 1594.35 740.676L1923.6 1068.67C1934.24 1079.27 1934.25 1096.48 1923.65 1107.1L1838.32 1192.5C1827.73 1203.1 1810.56 1203.1 1799.97 1192.5L1592.57 984.93C1581.97 974.331 1564.81 974.331 1554.21 984.93L1470.54 1068.67C1459.95 1079.27 1442.78 1079.27 1432.19 1068.67L1348.51 984.93C1337.92 974.331 1337.92 957.147 1348.51 946.549L1433.88 861.107C1444.47 850.509 1444.47 833.326 1433.88 822.727L1351.83 740.609C1341.27 730.036 1341.24 712.906 1351.76 702.297L1556.04 496.424C1566.57 485.815 1566.53 468.682 1555.98 458.109L1106.18 7.94921C1100.87 2.64321 1093.92 -0.00598983 1086.97 1.01687e-05L1086.98 1.01687e-05ZM1228.49 764.422C1228.92 764.422 1229.36 764.443 1229.79 764.484C1230.22 764.525 1230.65 764.589 1231.08 764.671C1231.51 764.754 1231.93 764.858 1232.35 764.982C1232.77 765.106 1233.18 765.25 1233.59 765.415C1234 765.581 1234.4 765.767 1234.79 765.974C1235.19 766.181 1235.57 766.409 1235.95 766.658C1236.32 766.906 1236.69 767.176 1237.04 767.466C1237.4 767.756 1237.74 768.067 1238.07 768.398L1302.79 833.164C1303.12 833.495 1303.43 833.839 1303.72 834.195C1304.01 834.55 1304.28 834.916 1304.53 835.292C1304.78 835.669 1305 836.055 1305.21 836.449C1305.42 836.843 1305.6 837.245 1305.77 837.654C1305.93 838.062 1306.08 838.476 1306.2 838.896C1306.33 839.316 1306.43 839.74 1306.51 840.167C1306.59 840.595 1306.66 841.026 1306.7 841.458C1306.74 841.891 1306.76 842.325 1306.76 842.759C1306.76 843.193 1306.74 843.628 1306.7 844.06C1306.66 844.493 1306.59 844.923 1306.51 845.351C1306.43 845.779 1306.33 846.203 1306.2 846.623C1306.08 847.042 1305.93 847.456 1305.77 847.865C1305.6 848.273 1305.42 848.676 1305.21 849.07C1305 849.464 1304.78 849.85 1304.53 850.226C1304.28 850.602 1304.01 850.968 1303.72 851.324C1303.43 851.679 1303.12 852.024 1302.79 852.355L1238.07 917.123C1237.74 917.454 1237.4 917.764 1237.04 918.054C1236.69 918.344 1236.32 918.612 1235.95 918.861C1235.57 919.109 1235.19 919.337 1234.79 919.544C1234.4 919.751 1234 919.937 1233.59 920.103C1233.18 920.269 1232.77 920.412 1232.35 920.537C1231.93 920.661 1231.51 920.764 1231.08 920.847C1230.65 920.93 1230.22 920.993 1229.79 921.035C1229.36 921.076 1228.92 921.097 1228.49 921.097C1228.05 921.097 1227.62 921.076 1227.19 921.035C1226.76 920.994 1226.33 920.93 1225.9 920.847C1225.47 920.764 1225.05 920.661 1224.63 920.537C1224.21 920.412 1223.79 920.269 1223.39 920.103C1222.98 919.937 1222.58 919.751 1222.18 919.544C1221.79 919.337 1221.4 919.109 1221.03 918.861C1220.65 918.612 1220.29 918.344 1219.93 918.054C1219.58 917.764 1219.23 917.454 1218.9 917.123L1154.18 852.355C1153.85 852.024 1153.54 851.679 1153.25 851.324C1152.96 850.968 1152.7 850.602 1152.45 850.226C1152.2 849.85 1151.97 849.464 1151.77 849.07C1151.56 848.676 1151.37 848.273 1151.21 847.865C1151.04 847.456 1150.9 847.042 1150.77 846.623C1150.65 846.203 1150.55 845.779 1150.46 845.351C1150.38 844.923 1150.32 844.493 1150.28 844.06C1150.24 843.628 1150.22 843.193 1150.22 842.759C1150.22 842.325 1150.24 841.891 1150.28 841.458C1150.32 841.026 1150.38 840.595 1150.46 840.167C1150.54 839.74 1150.65 839.316 1150.77 838.896C1150.9 838.476 1151.04 838.062 1151.21 837.654C1151.37 837.245 1151.56 836.843 1151.77 836.449C1151.97 836.055 1152.2 835.669 1152.45 835.292C1152.7 834.916 1152.96 834.55 1153.25 834.195C1153.54 833.839 1153.85 833.495 1154.18 833.164L1218.9 768.398C1219.23 768.067 1219.58 767.756 1219.93 767.466C1220.29 767.176 1220.65 766.906 1221.03 766.658C1221.4 766.409 1221.79 766.181 1222.18 765.974C1222.58 765.767 1222.98 765.581 1223.39 765.415C1223.79 765.25 1224.21 765.106 1224.63 764.982C1225.05 764.858 1225.47 764.754 1225.9 764.671C1226.33 764.588 1226.76 764.525 1227.19 764.484C1227.62 764.443 1228.05 764.422 1228.49 764.422ZM943.753 764.44C947.38 764.44 951.007 765.829 953.786 768.608L1017.9 832.727C1023.46 838.285 1023.46 847.233 1017.9 852.791L953.786 916.912C948.228 922.47 939.279 922.47 933.721 916.912L869.6 852.791C864.042 847.233 864.042 838.285 869.6 832.727L933.721 768.608C936.5 765.829 940.126 764.44 943.753 764.44Z" fill="white"/>
</g>
<defs>
<clipPath id="clip0_11402_236">
<rect width="2174" height="2174" fill="white"/>
</clipPath>
</defs>
</svg>
