<svg width="24" height="24" viewBox="0 0 24 24" fill="none" xmlns="http://www.w3.org/2000/svg">
<g clip-path="url(#clip0_11485_665)">
<path d="M11.9997 1.08555e-07C11.923 1.08555e-07 11.8464 0.029447 11.7879 0.0881221L6.84067 5.05657C6.72411 5.17363 6.72427 5.36307 6.84104 5.47993L9.11234 7.75302C9.22924 7.87002 9.22924 8.05973 9.11234 8.17673L8.18855 9.10125C8.07164 9.21825 8.07164 9.40795 8.18855 9.52496L9.11234 10.4495C9.22924 10.5665 9.22924 10.7562 9.11234 10.8732L8.18711 11.7992C8.07077 11.9155 7.88235 11.9162 7.76521 11.8006L6.82269 10.8703C6.70555 10.7546 6.51714 10.7553 6.40079 10.8717L4.1097 13.1647C3.99279 13.2817 3.80323 13.2817 3.68631 13.1647L2.76253 12.2401C2.64562 12.1231 2.64562 11.9334 2.76253 11.8164L6.39932 8.17673C6.51625 8.05974 6.51625 7.87002 6.39932 7.75303L5.49352 6.84649C5.3769 6.72978 5.18792 6.72947 5.07089 6.84578L0.0884176 11.7976C-0.0291899 11.9146 -0.0295111 12.1049 0.087689 12.2221L3.70577 15.8431C3.82239 15.9598 4.01137 15.9601 4.1284 15.8439L6.40082 13.5854C6.51728 13.4697 6.70511 13.4694 6.82196 13.5846L7.7465 14.4972C7.86364 14.6127 8.05205 14.6121 8.16838 14.4956L9.11234 13.5509C9.22925 13.4339 9.41881 13.4339 9.53573 13.5509L10.4595 14.4754C10.5764 14.5924 10.5764 14.7821 10.4595 14.8991L8.16986 17.1906C8.05295 17.3076 7.86339 17.3076 7.74648 17.1906L6.84141 16.2848C6.7245 16.1678 6.53495 16.1678 6.41804 16.2848L5.51298 17.1906C5.39607 17.3076 5.39607 17.4973 5.51298 17.6143L7.76519 19.8683C7.8821 19.9853 8.07164 19.9853 8.18855 19.8683L13.1538 14.8991C13.2708 14.7821 13.4603 14.7821 13.5772 14.8991L15.8668 17.1906C15.9837 17.3076 15.9837 17.4973 15.8668 17.6143L14.9258 18.5561C14.8083 18.6736 14.6176 18.673 14.501 18.5546L13.5772 17.6172C13.4605 17.4988 13.2699 17.4981 13.1523 17.6157L9.55369 21.2172C9.43706 21.3339 9.43674 21.5231 9.55296 21.6403L11.8067 23.9114C11.9235 24.0292 12.1136 24.0296 12.2307 23.9122L13.1351 23.0072C13.252 22.8902 13.252 22.7005 13.1351 22.5835L12.2113 21.6589C12.0944 21.5419 12.0944 21.3522 12.2113 21.2352L13.1539 20.292C13.2708 20.175 13.4603 20.175 13.5772 20.292L14.501 21.2165C14.6179 21.3335 14.8075 21.3335 14.9244 21.2165L18.5237 17.6143C18.6406 17.4972 18.6406 17.3076 18.5237 17.1906L16.2527 14.9178C16.1358 14.8008 16.1358 14.6112 16.2527 14.4942L17.1578 13.5884C17.2748 13.4713 17.4642 13.4713 17.5812 13.5884L19.8521 15.8611C19.969 15.9781 20.1585 15.9781 20.2755 15.8611L23.9123 12.2214C24.0292 12.1044 24.0292 11.9147 23.9123 11.7976L18.9471 6.82852C18.8301 6.71151 18.6406 6.71151 18.5237 6.82852L17.6003 7.75254C17.4833 7.86974 17.4836 8.05981 17.6009 8.17673L21.2357 11.7977C21.3531 11.9147 21.3533 12.1047 21.2362 12.2219L20.2942 13.1647C20.1773 13.2817 19.9878 13.2817 19.8708 13.1647L17.5812 10.8732C17.4642 10.7562 17.2748 10.7562 17.1578 10.8732L16.2341 11.7977C16.1172 11.9147 15.9276 11.9147 15.8107 11.7977L14.887 10.8732C14.77 10.7562 14.77 10.5665 14.887 10.4495L15.8294 9.50624C15.9463 9.38923 15.9463 9.19954 15.8294 9.08253L14.9236 8.17599C14.807 8.05927 14.8067 7.87016 14.9228 7.75304L17.178 5.4803C17.2942 5.36318 17.2939 5.17404 17.1773 5.05732L12.2117 0.0877556C12.1532 0.0291798 12.0764 -6.50247e-05 11.9997 1.08555e-07ZM13.5619 8.43887C13.5667 8.43887 13.5715 8.43909 13.5763 8.43955C13.581 8.44 13.5858 8.4407 13.5905 8.44161C13.5952 8.44253 13.5999 8.44367 13.6045 8.44503C13.6092 8.44641 13.6137 8.44799 13.6182 8.44982C13.6227 8.45165 13.6272 8.4537 13.6315 8.45599C13.6359 8.45827 13.6401 8.46079 13.6443 8.46354C13.6484 8.46628 13.6524 8.46926 13.6564 8.47246C13.6603 8.47566 13.6641 8.47909 13.6677 8.48275L14.3822 9.19773C14.3859 9.20138 14.3893 9.20519 14.3925 9.20911C14.3957 9.21303 14.3986 9.21708 14.4014 9.22123C14.4041 9.22539 14.4066 9.22964 14.4089 9.23399C14.4112 9.23834 14.4132 9.24279 14.415 9.2473C14.4169 9.25181 14.4185 9.25638 14.4199 9.26101C14.4212 9.26564 14.4223 9.27033 14.4233 9.27505C14.4242 9.27977 14.4249 9.28453 14.4253 9.2893C14.4258 9.29407 14.426 9.29887 14.426 9.30366C14.426 9.30845 14.4258 9.31325 14.4253 9.31802C14.4249 9.32279 14.4242 9.32755 14.4233 9.33227C14.4223 9.33699 14.4212 9.34168 14.4199 9.34631C14.4185 9.35094 14.4169 9.35551 14.415 9.36002C14.4132 9.36453 14.4112 9.36898 14.4089 9.37333C14.4066 9.37767 14.4041 9.38194 14.4014 9.38609C14.3986 9.39025 14.3957 9.39429 14.3925 9.39821C14.3893 9.40213 14.3859 9.40594 14.3822 9.40959L13.6677 10.1246C13.6641 10.1283 13.6603 10.1317 13.6564 10.1349C13.6524 10.1381 13.6484 10.141 13.6443 10.1438C13.6401 10.1465 13.6359 10.149 13.6315 10.1513C13.6272 10.1536 13.6227 10.1557 13.6182 10.1575C13.6137 10.1593 13.6092 10.1609 13.6045 10.1623C13.5999 10.1636 13.5952 10.1648 13.5905 10.1657C13.5858 10.1666 13.581 10.1673 13.5763 10.1678C13.5715 10.1682 13.5667 10.1685 13.5619 10.1685C13.5571 10.1685 13.5523 10.1682 13.5476 10.1678C13.5428 10.1673 13.538 10.1666 13.5333 10.1657C13.5286 10.1648 13.5239 10.1637 13.5193 10.1623C13.5147 10.1609 13.5101 10.1593 13.5056 10.1575C13.5011 10.1557 13.4967 10.1536 13.4923 10.1513C13.488 10.149 13.4837 10.1465 13.4796 10.1438C13.4754 10.141 13.4714 10.1381 13.4675 10.1349C13.4635 10.1317 13.4597 10.1283 13.4561 10.1246L12.7416 9.40959C12.738 9.40594 12.7345 9.40213 12.7313 9.39821C12.7282 9.39429 12.7252 9.39025 12.7225 9.38609C12.7197 9.38194 12.7172 9.37767 12.7149 9.37333C12.7127 9.36898 12.7106 9.36453 12.7088 9.36002C12.7069 9.35551 12.7054 9.35094 12.704 9.34631C12.7026 9.34168 12.7015 9.33699 12.7006 9.33227C12.6996 9.32755 12.699 9.32279 12.6985 9.31802C12.6981 9.31325 12.6978 9.30845 12.6978 9.30366C12.6978 9.29887 12.6981 9.29407 12.6985 9.2893C12.699 9.28453 12.6996 9.27977 12.7006 9.27505C12.7015 9.27033 12.7026 9.26564 12.704 9.26101C12.7053 9.25638 12.7069 9.25181 12.7088 9.2473C12.7106 9.24279 12.7127 9.23834 12.7149 9.23399C12.7172 9.22964 12.7197 9.22539 12.7225 9.22123C12.7252 9.21708 12.7282 9.21303 12.7313 9.20911C12.7345 9.20519 12.738 9.20138 12.7416 9.19773L13.4561 8.48275C13.4597 8.47909 13.4635 8.47566 13.4675 8.47246C13.4714 8.46926 13.4754 8.46628 13.4796 8.46354C13.4837 8.46079 13.488 8.45827 13.4923 8.45599C13.4967 8.4537 13.5011 8.45165 13.5056 8.44982C13.5101 8.44799 13.5147 8.44641 13.5193 8.44503C13.5239 8.44365 13.5286 8.44252 13.5333 8.44161C13.538 8.44068 13.5428 8.44 13.5476 8.43955C13.5523 8.43909 13.5571 8.43887 13.5619 8.43887ZM10.4186 8.43909C10.4586 8.43909 10.4986 8.45443 10.5293 8.4851L11.2372 9.19295C11.2985 9.25431 11.2985 9.3531 11.2372 9.41445L10.5293 10.1223C10.468 10.1837 10.3692 10.1837 10.3078 10.1223L9.59995 9.41445C9.5386 9.3531 9.5386 9.25431 9.59995 9.19295L10.3078 8.4851C10.3385 8.45443 10.3785 8.43909 10.4186 8.43909Z" fill="#9AD2F6"/>
</g>
<defs>
<clipPath id="clip0_11485_665">
<rect width="24" height="24" fill="white"/>
</clipPath>
</defs>
</svg>
