<svg width="1144" height="236" viewBox="0 0 1144 236" fill="currentColor" xmlns="http://www.w3.org/2000/svg">
    <path d="M39.1526 204.366C33.993 204.366 30.5345 199.064 32.6138 194.342L102.216 36.2657C103.357 33.6734 105.922 32.0002 108.755 32.0002H147.334C150.163 32.0002 152.726 33.6698 153.869 36.2579L223.697 194.334C225.783 199.057 222.325 204.366 217.161 204.366H182.368C179.447 204.366 176.820 202.588 175.735 199.877L121.654 64.778C119.949 60.5191 123.085 55.8852 127.673 55.8852C132.260 55.8852 135.397 60.5191 133.692 64.778L79.6109 199.877C78.5254 202.588 75.8987 204.366 72.9779 204.366H39.1526Z" />
    <path d="M758.083 105.875C758.083 101.929 761.282 98.7304 765.228 98.7304H875.269C879.215 98.7304 882.414 101.929 882.414 105.875V128.029C882.414 131.975 879.215 135.173 875.269 135.173H765.228C761.282 135.173 758.083 131.975 758.083 128.029V105.875ZM758.083 166.624C758.083 166.661 758.114 166.692 758.151 166.692H888.756C892.702 166.692 895.901 169.891 895.901 173.837V197.221C895.901 201.167 892.702 204.366 888.756 204.366H765.228C761.282 204.366 758.083 201.167 758.083 197.221V39.1449C758.083 35.1990 761.282 32.0002 765.228 32.0002H885.569C889.514 32.0002 892.713 35.1990 892.713 39.1449V62.5297C892.713 66.4757 889.514 69.6744 885.569 69.6744H758.167C758.121 69.6744 758.083 69.7120 758.083 69.7584V166.624Z" />
    <path d="M267.825 158.414C264.993 158.518 262.420 156.820 261.280 154.225L246.625 120.892L224.433 70.4132L211.950 42.0204C209.874 37.2986 213.333 32.0002 218.491 32.0002H255.585C271.310 32.0002 284.824 34.5446 296.127 39.6335C307.593 44.7224 316.439 52.1095 322.663 61.7949C328.888 71.3160 332 82.6429 332 95.7756C332 108.744 328.888 119.989 322.663 129.510C316.439 138.867 307.593 146.090 296.127 151.179C286.017 155.584 280.195 157.962 267.825 158.414ZM288.012 204.366C285.179 204.366 282.613 202.692 281.472 200.099L259.893 151.061C257.877 146.482 261.071 141.303 266.068 141.048L300.705 139.281C303.629 139.132 306.348 140.781 307.566 143.444L330.811 194.249C332.976 198.981 329.518 204.366 324.314 204.366H288.012ZM224.433 70.4132L246.625 120.892H252.637C262.792 120.892 270.327 118.676 275.242 114.243C280.320 109.811 282.859 103.655 282.859 95.7756C282.859 87.7318 280.320 81.4938 275.242 77.0616C270.327 72.6293 262.792 70.4132 252.637 70.4132H224.433Z" />
    <path d="M423.440 163.410C419.758 167.435 413.104 166.014 411.388 160.835L402.383 133.673C401.563 131.199 402.156 128.474 403.929 126.564L489.600 34.2838C490.952 32.8276 492.849 32.0002 494.836 32.0002H528.990C535.215 32.0002 538.463 39.4069 534.246 43.9854L471.572 112.027L444.544 140.344L423.440 163.410ZM384.119 204.366C380.173 204.366 376.974 201.167 376.974 197.221V158.510C376.974 156.713 377.652 154.981 378.872 153.661L412.742 117.015C417.155 112.240 425.133 115.363 425.133 121.864V197.221C425.133 201.167 421.934 204.366 417.988 204.366H384.119ZM495.926 204.366C493.736 204.366 491.667 203.362 490.312 201.641L440.225 138.017C438.045 135.247 438.210 131.302 440.614 128.724L462.382 105.388C465.393 102.160 470.580 102.407 473.271 105.906L540.129 192.867C543.742 197.565 540.392 204.366 534.465 204.366H495.926Z" />
    <path d="M594.701 204.366C590.755 204.366 587.556 201.167 587.557 197.221L587.557 165.461V70.9056V39.1449C587.557 35.1990 590.756 32.0002 594.701 32.0002H620.298C639.336 32.0002 656.076 35.5296 670.519 42.5884C684.961 49.6472 696.203 59.5787 704.245 72.3831C712.451 85.1874 716.554 100.454 716.554 118.183C716.554 135.748 712.451 151.015 704.245 163.983C696.203 176.788 684.961 186.719 670.519 193.778C656.076 200.837 639.336 204.366 620.298 204.366H594.701ZM587.557 165.461H618.329C628.176 165.461 636.710 163.655 643.932 160.043C651.317 156.268 657.061 150.851 661.164 143.792C665.267 136.569 667.318 128.033 667.318 118.183C667.318 108.169 665.267 99.6333 661.164 92.5745C657.061 85.5157 651.317 80.1806 643.932 76.5691C636.710 72.7934 628.176 70.9056 618.329 70.9056H587.557V165.461Z" />
    <path d="M998.734 204.366C995.871 204.366 993.285 202.657 992.162 200.023L924.766 41.947C922.756 37.234 926.214 32.0002 931.338 32.0002H968.352C971.240 32.0002 973.844 33.7387 974.951 36.4059L1030.960 171.336C1032.910 176.041 1029.450 181.220 1024.360 181.220H1014.890C1009.770 181.220 1006.310 175.993 1008.310 171.281L1065.650 36.3505C1066.770 33.7128 1069.360 32.0002 1072.230 32.0002H1104.850C1109.970 32.0002 1113.430 37.2409 1111.420 41.9549L1043.790 200.031C1042.670 202.661 1040.090 204.366 1037.230 204.366H998.734Z" />
    <path d="M425.174 39.1447V58.661C425.174 60.4676 424.489 62.2072 423.258 63.5295L389.321 99.9807C384.900 104.730 376.947 101.601 376.947 95.1122V39.1447C376.947 35.1988 380.146 32 384.092 32L418.029 32C421.975 32 425.174 35.1988 425.174 39.1447Z" />
</svg>