<svg width="1286" height="55" viewBox="0 0 1286 55" fill="none" xmlns="http://www.w3.org/2000/svg">
<path d="M0 59.8274L26.2834 0.672552H30.4463L56.7297 59.8274H52.2403L27.4262 3.37676H29.2219L4.48939 59.8274H0ZM9.63181 43.1796L11.0194 39.5458H45.2205L46.6081 43.1796H9.63181Z" fill="white"/>
<path d="M114.445 59.8274V0.672552H118.608V55.9401H151.503V59.8274H114.445Z" fill="white"/>
<path d="M217.885 59.8274L198.458 0.672552H202.866L221.313 57.2077H219.109L238.128 0.672552H242.128L260.983 57.2077H258.861L277.472 0.672552H281.553L262.208 59.8274H257.8L239.516 5.15143H240.577L222.293 59.8274H217.885Z" fill="white"/>
<path d="M329.591 59.8274L355.875 0.672552H360.038L386.321 59.8274H381.832L357.018 3.37676H358.813L334.081 59.8274H329.591ZM339.223 43.1796L340.611 39.5458H374.812L376.2 43.1796H339.223Z" fill="white"/>
<path d="M454.157 59.8274V38.3627L455.136 41.1514L431.139 0.672552H435.71L457.504 37.4331H455.218L477.012 0.672552H481.338L457.34 41.1514L458.32 38.3627V59.8274H454.157Z" fill="white"/>
<path d="M552.871 60.25C548.626 60.25 544.599 59.5176 540.79 58.0528C537.036 56.5317 534.124 54.588 532.056 52.2219L533.934 49.0105C535.893 51.0951 538.559 52.8697 541.933 54.3345C545.361 55.743 548.98 56.4472 552.789 56.4472C556.598 56.4472 559.7 55.9401 562.094 54.9261C564.543 53.8556 566.339 52.4472 567.482 50.7007C568.679 48.9542 569.278 47.0106 569.278 44.8697C569.278 42.3345 568.625 40.3063 567.319 38.7852C566.013 37.2641 564.298 36.0528 562.176 35.1514C560.054 34.25 557.741 33.4894 555.238 32.8697C552.735 32.25 550.204 31.6021 547.647 30.9261C545.089 30.1937 542.749 29.2641 540.627 28.1373C538.505 27.0106 536.791 25.4894 535.485 23.5739C534.233 21.6021 533.607 19.0669 533.607 15.9683C533.607 13.1514 534.315 10.5599 535.729 8.19366C537.144 5.82746 539.348 3.91198 542.341 2.44719C545.334 0.982402 549.17 0.25 553.85 0.25C557.006 0.25 560.108 0.728863 563.156 1.68661C566.257 2.64436 568.897 3.94015 571.073 5.57395L569.522 9.03873C567.128 7.34859 564.543 6.10914 561.768 5.32041C559.047 4.47534 556.408 4.05282 553.85 4.05282C550.204 4.05282 547.184 4.58805 544.79 5.65847C542.396 6.72889 540.627 8.16551 539.484 9.96833C538.341 11.7148 537.77 13.6866 537.77 15.8838C537.77 18.419 538.396 20.4472 539.648 21.9683C540.953 23.4894 542.668 24.7007 544.79 25.6021C546.912 26.5035 549.252 27.2641 551.81 27.8838C554.367 28.5035 556.898 29.1796 559.401 29.912C561.904 30.588 564.217 31.4894 566.339 32.6162C568.461 33.743 570.175 35.2641 571.481 37.1796C572.787 39.0951 573.44 41.5739 573.44 44.6162C573.44 47.3768 572.706 49.9683 571.237 52.3908C569.767 54.757 567.509 56.6725 564.462 58.1373C561.469 59.5458 557.605 60.25 552.871 60.25Z" fill="white"/>
<path d="M697.629 59.8274V0.672552H721.464C727.613 0.672552 732.429 1.96831 735.912 4.55986C739.394 7.15141 741.136 10.8979 741.136 15.7993C741.136 19.0106 740.401 21.7148 738.932 23.912C737.462 26.1092 735.422 27.7711 732.81 28.8979C730.252 29.9683 727.368 30.5035 724.157 30.5035L725.627 28.8134C729.545 28.8134 732.891 29.4049 735.667 30.588C738.442 31.7711 740.537 33.4894 741.952 35.7429C743.421 37.9965 744.156 40.8134 744.156 44.1937C744.156 49.1514 742.414 53.0106 738.932 55.7711C735.449 58.4754 730.17 59.8274 723.096 59.8274H697.629ZM701.792 56.1091H723.096C728.592 56.1091 732.782 55.1514 735.667 53.2359C738.551 51.2641 739.993 48.1373 739.993 43.8556C739.993 39.6303 738.551 36.5599 735.667 34.6444C732.782 32.6726 728.592 31.6866 723.096 31.6866H701.302V27.9683H721.301C726.253 27.9683 730.089 26.9824 732.81 25.0105C735.531 23.0387 736.891 20.081 736.891 16.1373C736.891 12.25 735.531 9.32045 732.81 7.34862C730.089 5.37679 726.253 4.39087 721.301 4.39087H701.792V56.1091Z" fill="white"/>
<path d="M810.024 27.8838H840.96V31.6866H810.024V27.8838ZM810.513 55.9401H845.776V59.8274H806.35V0.672552H844.551V4.55986H810.513V55.9401Z" fill="white"/>
<path d="M921.047 59.8274V38.3627L922.027 41.1514L898.029 0.672552H902.6L924.394 37.4331H922.108L943.902 0.672552H948.228L924.23 41.1514L925.21 38.3627V59.8274H921.047Z" fill="white"/>
<path d="M1027.71 60.25C1023.46 60.25 1019.52 59.5176 1015.87 58.0528C1012.28 56.5317 1009.13 54.419 1006.4 51.7148C1003.74 48.9542 1001.67 45.7711 1000.2 42.1655C998.732 38.5035 997.997 34.5317 997.997 30.25C997.997 25.9683 998.732 22.0246 1000.2 18.419C1001.67 14.757 1003.74 11.5739 1006.4 8.86972C1009.13 6.10916 1012.28 3.99647 1015.87 2.53168C1019.52 1.01056 1023.46 0.25 1027.71 0.25C1031.95 0.25 1035.87 1.01056 1039.46 2.53168C1043.11 3.99647 1046.27 6.08097 1048.93 8.7852C1051.6 11.4894 1053.67 14.6725 1055.14 18.3345C1056.66 21.9401 1057.42 25.912 1057.42 30.25C1057.42 34.588 1056.66 38.588 1055.14 42.25C1053.67 45.8556 1051.6 49.0105 1048.93 51.7148C1046.27 54.419 1043.11 56.5317 1039.46 58.0528C1035.87 59.5176 1031.95 60.25 1027.71 60.25ZM1027.71 56.2781C1031.36 56.2781 1034.73 55.6303 1037.83 54.3345C1040.93 53.0387 1043.63 51.2077 1045.91 48.8415C1048.2 46.4753 1049.97 43.7148 1051.22 40.5599C1052.52 37.4049 1053.18 33.9683 1053.18 30.25C1053.18 26.4754 1052.52 23.0387 1051.22 19.9401C1049.97 16.7852 1048.2 14.0247 1045.91 11.6585C1043.63 9.29228 1040.93 7.46126 1037.83 6.16548C1034.73 4.86971 1031.36 4.22183 1027.71 4.22183C1024.06 4.22183 1020.69 4.86971 1017.59 6.16548C1014.49 7.46126 1011.77 9.29228 1009.43 11.6585C1007.14 14.0247 1005.34 16.7852 1004.04 19.9401C1002.79 23.0387 1002.16 26.4754 1002.16 30.25C1002.16 33.9683 1002.79 37.4049 1004.04 40.5599C1005.34 43.7148 1007.14 46.4753 1009.43 48.8415C1011.77 51.2077 1014.49 53.0387 1017.59 54.3345C1020.69 55.6303 1024.06 56.2781 1027.71 56.2781Z" fill="white"/>
<path d="M1119.2 59.8274V0.672552H1122.71L1163.44 54.5035H1161.57V0.672552H1165.73V59.8274H1162.3L1121.49 5.99647H1123.37V59.8274H1119.2Z" fill="white"/>
<path d="M1233.03 59.8274V0.672552H1255.64C1261.68 0.672552 1266.98 1.94013 1271.55 4.47534C1276.12 7.01055 1279.66 10.5035 1282.16 14.9542C1284.72 19.4049 1286 24.5035 1286 30.25C1286 35.9965 1284.72 41.0951 1282.16 45.5458C1279.66 49.9965 1276.12 53.4894 1271.55 56.0246C1266.98 58.5598 1261.68 59.8274 1255.64 59.8274H1233.03ZM1237.19 55.9401H1255.31C1260.7 55.9401 1265.38 54.8416 1269.35 52.6444C1273.32 50.4472 1276.4 47.4331 1278.57 43.6021C1280.75 39.7148 1281.84 35.2641 1281.84 30.25C1281.84 25.2359 1280.75 20.8134 1278.57 16.9824C1276.4 13.0951 1273.32 10.0528 1269.35 7.85566C1265.38 5.65848 1260.7 4.55986 1255.31 4.55986H1237.19V55.9401Z" fill="white"/>
</svg>
