<svg width="24" height="25" viewBox="0 0 24 25" fill="none" xmlns="http://www.w3.org/2000/svg">
<g clip-path="url(#clip0_11444_10367)">
<path d="M11.9997 0.5C11.923 0.5 11.8464 0.529447 11.7879 0.588122L6.84067 5.55657C6.72411 5.67363 6.72427 5.86307 6.84104 5.97993L9.11234 8.25302C9.22925 8.37002 9.22925 8.55973 9.11234 8.67673L8.18855 9.60125C8.07164 9.71825 8.07164 9.90795 8.18855 10.025L9.11234 10.9495C9.22925 11.0665 9.22925 11.2562 9.11234 11.3732L8.18711 12.2992C8.07077 12.4155 7.88235 12.4162 7.76521 12.3006L6.82269 11.3703C6.70555 11.2546 6.51714 11.2553 6.40079 11.3717L4.1097 13.6647C3.99279 13.7817 3.80324 13.7817 3.68631 13.6647L2.76253 12.7401C2.64562 12.6231 2.64562 12.4334 2.76253 12.3164L6.39932 8.67673C6.51625 8.55974 6.51625 8.37002 6.39932 8.25303L5.49352 7.34649C5.3769 7.22978 5.18792 7.22947 5.07089 7.34578L0.0884176 12.2976C-0.0291899 12.4146 -0.0295111 12.6049 0.087689 12.7221L3.70577 16.3431C3.82239 16.4598 4.01137 16.4601 4.1284 16.3439L6.40082 14.0854C6.51728 13.9697 6.70511 13.9694 6.82196 14.0846L7.7465 14.9972C7.86364 15.1127 8.05205 15.1121 8.16838 14.9956L9.11234 14.0509C9.22925 13.9339 9.41881 13.9339 9.53573 14.0509L10.4595 14.9754C10.5764 15.0924 10.5764 15.2821 10.4595 15.3991L8.16986 17.6906C8.05295 17.8076 7.86339 17.8076 7.74648 17.6906L6.84141 16.7848C6.7245 16.6678 6.53495 16.6678 6.41804 16.7848L5.51298 17.6906C5.39607 17.8076 5.39607 17.9972 5.51298 18.1143L7.76519 20.3683C7.8821 20.4853 8.07164 20.4853 8.18855 20.3683L13.1538 15.3991C13.2708 15.2821 13.4603 15.2821 13.5772 15.3991L15.8668 17.6906C15.9837 17.8076 15.9837 17.9972 15.8668 18.1143L14.9258 19.0561C14.8083 19.1736 14.6176 19.173 14.501 19.0546L13.5772 18.1172C13.4605 17.9988 13.2699 17.9981 13.1523 18.1157L9.55369 21.7172C9.43706 21.8339 9.43674 22.0231 9.55296 22.1403L11.8067 24.4114C11.9235 24.5292 12.1136 24.5296 12.2307 24.4122L13.1351 23.5072C13.252 23.3902 13.252 23.2005 13.1351 23.0835L12.2113 22.1589C12.0944 22.0419 12.0944 21.8522 12.2113 21.7352L13.1539 20.792C13.2708 20.675 13.4603 20.675 13.5772 20.792L14.501 21.7165C14.6179 21.8335 14.8075 21.8335 14.9244 21.7165L18.5237 18.1143C18.6406 17.9972 18.6406 17.8076 18.5237 17.6906L16.2527 15.4178C16.1358 15.3008 16.1358 15.1112 16.2527 14.9942L17.1578 14.0884C17.2748 13.9713 17.4642 13.9713 17.5812 14.0884L19.8521 16.3611C19.969 16.4781 20.1585 16.4781 20.2755 16.3611L23.9123 12.7214C24.0292 12.6044 24.0292 12.4147 23.9123 12.2976L18.9471 7.32852C18.8301 7.21151 18.6406 7.21151 18.5237 7.32852L17.6003 8.25254C17.4833 8.36974 17.4836 8.55981 17.6009 8.67673L21.2357 12.2977C21.3531 12.4147 21.3533 12.6047 21.2362 12.7219L20.2942 13.6647C20.1773 13.7817 19.9878 13.7817 19.8708 13.6647L17.5812 11.3732C17.4642 11.2562 17.2748 11.2562 17.1578 11.3732L16.2341 12.2977C16.1172 12.4147 15.9276 12.4147 15.8107 12.2977L14.887 11.3732C14.77 11.2562 14.77 11.0665 14.887 10.9495L15.8294 10.0062C15.9463 9.88923 15.9463 9.69954 15.8294 9.58253L14.9236 8.67599C14.807 8.55927 14.8067 8.37016 14.9228 8.25304L17.178 5.9803C17.2942 5.86318 17.2939 5.67404 17.1773 5.55732L12.2117 0.587756C12.1532 0.52918 12.0764 0.499935 11.9997 0.5ZM13.5619 8.93887C13.5667 8.93887 13.5715 8.93909 13.5763 8.93955C13.581 8.94 13.5858 8.9407 13.5905 8.94161C13.5952 8.94253 13.5999 8.94367 13.6045 8.94503C13.6092 8.94641 13.6137 8.94799 13.6182 8.94982C13.6227 8.95165 13.6272 8.9537 13.6315 8.95599C13.6359 8.95827 13.6401 8.96079 13.6443 8.96354C13.6484 8.96628 13.6524 8.96926 13.6564 8.97246C13.6603 8.97566 13.6641 8.97909 13.6677 8.98275L14.3822 9.69773C14.3859 9.70138 14.3893 9.70519 14.3925 9.70911C14.3957 9.71303 14.3986 9.71708 14.4014 9.72123C14.4041 9.72538 14.4066 9.72964 14.4089 9.73399C14.4112 9.73834 14.4132 9.74279 14.415 9.7473C14.4169 9.75181 14.4185 9.75638 14.4199 9.76101C14.4212 9.76565 14.4223 9.77033 14.4233 9.77505C14.4242 9.77977 14.4249 9.78453 14.4253 9.7893C14.4258 9.79408 14.426 9.79887 14.426 9.80366C14.426 9.80845 14.4258 9.81325 14.4253 9.81802C14.4249 9.82279 14.4242 9.82755 14.4233 9.83227C14.4223 9.83699 14.4212 9.84168 14.4199 9.84631C14.4185 9.85094 14.4169 9.85551 14.415 9.86002C14.4132 9.86453 14.4112 9.86898 14.4089 9.87333C14.4066 9.87767 14.4041 9.88194 14.4014 9.88609C14.3986 9.89025 14.3957 9.89429 14.3925 9.89821C14.3893 9.90213 14.3859 9.90594 14.3822 9.90959L13.6677 10.6246C13.6641 10.6283 13.6603 10.6317 13.6564 10.6349C13.6524 10.6381 13.6484 10.641 13.6443 10.6438C13.6401 10.6465 13.6359 10.649 13.6315 10.6513C13.6272 10.6536 13.6227 10.6557 13.6182 10.6575C13.6137 10.6593 13.6092 10.6609 13.6045 10.6623C13.5999 10.6636 13.5952 10.6648 13.5905 10.6657C13.5858 10.6666 13.581 10.6673 13.5763 10.6678C13.5715 10.6682 13.5667 10.6685 13.5619 10.6685C13.5571 10.6685 13.5523 10.6682 13.5476 10.6678C13.5428 10.6673 13.538 10.6666 13.5333 10.6657C13.5286 10.6648 13.5239 10.6637 13.5193 10.6623C13.5147 10.6609 13.5101 10.6593 13.5056 10.6575C13.5011 10.6557 13.4967 10.6536 13.4923 10.6513C13.488 10.649 13.4837 10.6465 13.4796 10.6438C13.4754 10.641 13.4714 10.6381 13.4675 10.6349C13.4635 10.6317 13.4597 10.6283 13.4561 10.6246L12.7416 9.90959C12.738 9.90594 12.7345 9.90213 12.7313 9.89821C12.7282 9.89429 12.7252 9.89025 12.7225 9.88609C12.7197 9.88194 12.7172 9.87767 12.7149 9.87333C12.7127 9.86898 12.7106 9.86453 12.7088 9.86002C12.7069 9.85551 12.7054 9.85094 12.704 9.84631C12.7026 9.84168 12.7015 9.83699 12.7006 9.83227C12.6996 9.82755 12.699 9.82279 12.6985 9.81802C12.6981 9.81325 12.6978 9.80845 12.6978 9.80366C12.6978 9.79887 12.6981 9.79408 12.6985 9.7893C12.699 9.78453 12.6996 9.77977 12.7006 9.77505C12.7015 9.77033 12.7026 9.76565 12.704 9.76101C12.7053 9.75638 12.7069 9.75181 12.7088 9.7473C12.7106 9.74279 12.7127 9.73834 12.7149 9.73399C12.7172 9.72964 12.7197 9.72538 12.7225 9.72123C12.7252 9.71708 12.7282 9.71303 12.7313 9.70911C12.7345 9.70519 12.738 9.70138 12.7416 9.69773L13.4561 8.98275C13.4597 8.97909 13.4635 8.97566 13.4675 8.97246C13.4714 8.96926 13.4754 8.96628 13.4796 8.96354C13.4837 8.96079 13.488 8.95827 13.4923 8.95599C13.4967 8.9537 13.5011 8.95165 13.5056 8.94982C13.5101 8.94799 13.5147 8.94641 13.5193 8.94503C13.5239 8.94365 13.5286 8.94252 13.5333 8.94161C13.538 8.94068 13.5428 8.94 13.5476 8.93955C13.5523 8.93909 13.5571 8.93887 13.5619 8.93887ZM10.4186 8.93909C10.4586 8.93909 10.4986 8.95443 10.5293 8.9851L11.2372 9.69295C11.2985 9.75431 11.2985 9.8531 11.2372 9.91445L10.5293 10.6223C10.468 10.6837 10.3692 10.6837 10.3078 10.6223L9.59995 9.91445C9.5386 9.8531 9.5386 9.75431 9.59995 9.69295L10.3078 8.9851C10.3385 8.95443 10.3785 8.93909 10.4186 8.93909Z" fill="#560012"/>
</g>
<defs>
<clipPath id="clip0_11444_10367">
<rect width="24" height="24" fill="white" transform="translate(0 0.5)"/>
</clipPath>
</defs>
</svg>
