<svg width="80" height="81" viewBox="0 0 80 81" fill="none" xmlns="http://www.w3.org/2000/svg">
<path d="M39.9991 0.25C39.7435 0.25 39.4879 0.348157 39.2931 0.54374L22.8022 17.1052C22.4137 17.4954 22.4142 18.1269 22.8035 18.5164L30.3745 26.0934C30.7642 26.4834 30.7642 27.1158 30.3745 27.5058L27.2952 30.5875C26.9055 30.9775 26.9055 31.6098 27.2952 31.9998L30.3745 35.0816C30.7642 35.4716 30.7642 36.1039 30.3745 36.4939L27.2904 39.5806C26.9026 39.9685 26.2745 39.9707 25.884 39.5855L22.7423 36.4842C22.3518 36.0988 21.7238 36.1009 21.336 36.4891L13.699 44.1322C13.3093 44.5223 12.6775 44.5223 12.2877 44.1322L9.20844 41.0504C8.81874 40.6603 8.81874 40.0281 9.20844 39.6381L21.3311 27.5058C21.7208 27.1158 21.7208 26.4834 21.3311 26.0934L18.3117 23.0716C17.923 22.6826 17.2931 22.6816 16.903 23.0693L0.294725 39.5755C-0.0972996 39.9652 -0.0983704 40.5996 0.292297 40.9904L12.3526 53.0603C12.7413 53.4493 13.3712 53.4504 13.7613 53.0629L21.3361 45.5347C21.7243 45.149 22.3504 45.1479 22.7399 45.5321L25.8217 48.5739C26.2121 48.9592 26.8402 48.9569 27.2279 48.5687L30.3745 45.4198C30.7642 45.0298 31.396 45.0298 31.7858 45.4198L34.865 48.5013C35.2547 48.8914 35.2547 49.5236 34.865 49.9137L27.2329 57.5519C26.8432 57.942 26.2113 57.942 25.8216 57.5519L22.8047 54.5326C22.415 54.1425 21.7832 54.1425 21.3935 54.5326L18.3766 57.5519C17.9869 57.942 17.9869 58.5742 18.3766 58.9642L25.884 66.4777C26.2737 66.8678 26.9055 66.8678 27.2952 66.4777L43.8462 49.9137C44.2359 49.5236 44.8677 49.5236 45.2574 49.9137L52.8894 57.5519C53.2791 57.942 53.2791 58.5742 52.8894 58.9642L49.7527 62.1035C49.3611 62.4954 48.7252 62.4932 48.3367 62.0987L45.2574 58.9741C44.8684 58.5793 44.2329 58.5771 43.841 58.969L31.8456 70.9742C31.4569 71.3631 31.4558 71.9938 31.8432 72.3842L39.3556 79.9548C39.7449 80.3474 40.3786 80.3485 40.7691 79.9574L43.7836 76.9406C44.1733 76.5505 44.1733 75.9184 43.7836 75.5283L40.7043 72.4464C40.3146 72.0564 40.3146 71.4241 40.7043 71.0341L43.8462 67.89C44.2359 67.5 44.8677 67.5 45.2574 67.89L48.3367 70.9715C48.7264 71.3616 49.3582 71.3616 49.7479 70.9715L61.7457 58.9642C62.1354 58.5741 62.1354 57.9419 61.7457 57.5519L54.1758 49.9761C53.7861 49.5861 53.7861 48.9539 54.1758 48.5639L57.1926 45.5445C57.5827 45.1544 58.2141 45.1544 58.6042 45.5445L66.1737 53.1203C66.5634 53.5103 67.1952 53.5103 67.5849 53.1203L79.7077 40.9881C80.0974 40.598 80.0974 39.9655 79.7077 39.5755L63.1569 23.0117C62.7672 22.6217 62.1354 22.6217 61.7457 23.0117L58.6678 26.0918C58.2778 26.4825 58.2785 27.116 58.6697 27.5058L70.7856 39.5755C71.1771 39.9656 71.1778 40.5989 70.7874 40.9897L67.6474 44.1323C67.2577 44.5223 66.6259 44.5223 66.2362 44.1323L58.6042 36.4939C58.2141 36.1039 57.5827 36.1039 57.1926 36.4939L54.1137 39.5755C53.724 39.9656 53.0922 39.9656 52.7025 39.5755L49.6232 36.4939C49.2335 36.1039 49.2335 35.4716 49.6232 35.0816L52.7646 31.9375C53.1543 31.5474 53.1543 30.9151 52.7646 30.5251L49.7453 27.5033C49.3567 27.1142 49.3557 26.4839 49.7428 26.0935L57.26 18.5177C57.6475 18.1273 57.6463 17.4968 57.2578 17.1077L40.7058 0.542519C40.5106 0.347266 40.2548 0.249783 39.9991 0.25ZM45.2064 28.3796C45.2224 28.3796 45.2383 28.3803 45.2542 28.3818C45.2701 28.3833 45.286 28.3857 45.3017 28.3887C45.3174 28.3918 45.333 28.3956 45.3484 28.4001C45.3639 28.4047 45.3791 28.41 45.3941 28.4161C45.4091 28.4222 45.4239 28.429 45.4384 28.4366C45.4529 28.4442 45.4671 28.4526 45.4809 28.4618C45.4947 28.4709 45.5082 28.4809 45.5212 28.4915C45.5343 28.5022 45.5469 28.5136 45.5591 28.5258L47.9407 30.9091C47.9529 30.9213 47.9643 30.934 47.9749 30.947C47.9856 30.9601 47.9955 30.9736 48.0046 30.9874C48.0137 31.0013 48.0221 31.0155 48.0297 31.03C48.0373 31.0445 48.0441 31.0593 48.0502 31.0743C48.0563 31.0894 48.0616 31.1046 48.0662 31.12C48.0707 31.1355 48.0745 31.1511 48.0776 31.1668C48.0806 31.1826 48.0829 31.1984 48.0844 31.2143C48.0859 31.2302 48.0867 31.2462 48.0867 31.2622C48.0867 31.2782 48.0859 31.2942 48.0844 31.3101C48.0829 31.326 48.0806 31.3418 48.0776 31.3576C48.0745 31.3733 48.0708 31.3889 48.0662 31.4044C48.0617 31.4198 48.0562 31.435 48.0502 31.4501C48.044 31.4651 48.0373 31.4799 48.0297 31.4944C48.0221 31.5089 48.0137 31.5231 48.0046 31.537C47.9955 31.5508 47.9856 31.5643 47.9749 31.5774C47.9643 31.5904 47.9529 31.6031 47.9407 31.6153L45.5591 33.9987C45.5469 34.0109 45.5343 34.0223 45.5212 34.0329C45.5082 34.0436 45.4947 34.0535 45.4809 34.0626C45.4671 34.0718 45.4529 34.0802 45.4384 34.0878C45.4239 34.0954 45.4091 34.1022 45.3941 34.1083C45.3791 34.1144 45.3639 34.1197 45.3484 34.1243C45.333 34.1288 45.3174 34.1327 45.3017 34.1357C45.286 34.1388 45.2701 34.1411 45.2542 34.1426C45.2383 34.1441 45.2224 34.1449 45.2064 34.1449C45.1904 34.1449 45.1744 34.1441 45.1585 34.1426C45.1426 34.1411 45.1268 34.1387 45.1111 34.1357C45.0954 34.1327 45.0797 34.1288 45.0643 34.1243C45.0489 34.1197 45.0337 34.1144 45.0187 34.1083C45.0037 34.1022 44.9889 34.0954 44.9744 34.0878C44.9599 34.0802 44.9457 34.0718 44.9319 34.0626C44.918 34.0535 44.9046 34.0436 44.8915 34.0329C44.8785 34.0223 44.8658 34.0109 44.8537 33.9987L42.4721 31.6153C42.4599 31.6031 42.4485 31.5904 42.4378 31.5774C42.4272 31.5643 42.4173 31.5508 42.4082 31.537C42.3991 31.5231 42.3907 31.5089 42.3831 31.4944C42.3755 31.4799 42.3687 31.4651 42.3626 31.4501C42.3565 31.435 42.3512 31.4198 42.3466 31.4044C42.3421 31.3889 42.3382 31.3733 42.3352 31.3576C42.3321 31.3418 42.3299 31.326 42.3284 31.3101C42.3269 31.2942 42.3262 31.2782 42.3262 31.2622C42.3262 31.2462 42.3269 31.2302 42.3284 31.2143C42.3299 31.1984 42.3322 31.1826 42.3352 31.1668C42.3383 31.1511 42.3421 31.1355 42.3466 31.12C42.3511 31.1046 42.3565 31.0894 42.3626 31.0743C42.3687 31.0593 42.3755 31.0445 42.3831 31.03C42.3907 31.0155 42.3991 31.0013 42.4082 30.9874C42.4173 30.9736 42.4272 30.9601 42.4378 30.947C42.4485 30.934 42.4599 30.9213 42.4721 30.9091L44.8537 28.5258C44.8658 28.5136 44.8785 28.5022 44.8915 28.4915C44.9046 28.4809 44.918 28.4709 44.9319 28.4618C44.9457 28.4526 44.9599 28.4442 44.9744 28.4366C44.9889 28.429 45.0037 28.4222 45.0187 28.4161C45.0337 28.41 45.0489 28.4047 45.0643 28.4001C45.0797 28.3955 45.0954 28.3917 45.1111 28.3887C45.1268 28.3856 45.1426 28.3833 45.1585 28.3818C45.1744 28.3803 45.1904 28.3796 45.2064 28.3796ZM34.7285 28.3803C34.862 28.3803 34.9955 28.4314 35.0978 28.5337L37.4572 30.8932C37.6618 31.0977 37.6618 31.427 37.4572 31.6315L35.0978 33.9911C34.8932 34.1956 34.5639 34.1956 34.3594 33.9911L31.9998 31.6315C31.7953 31.427 31.7953 31.0977 31.9998 30.8932L34.3594 28.5337C34.4617 28.4314 34.5951 28.3803 34.7285 28.3803Z" fill="#FFF7ED"/>
</svg>
