<svg width="202" height="33" viewBox="0 0 202 33" fill="none" xmlns="http://www.w3.org/2000/svg">
<path d="M1.83118 32.3181C0.870913 32.3181 0.227261 31.3317 0.614226 30.4532L13.568 1.04363C13.7804 0.561338 14.2578 0.250035 14.7849 0.250035H21.9649C22.4915 0.250035 22.9684 0.560666 23.1812 1.04217L36.1769 30.4518C36.5652 31.3305 35.9215 32.3181 34.9606 32.3181H28.4851C27.9415 32.3181 27.4527 31.9873 27.2506 31.4829L17.1856 6.34824C16.8683 5.55588 17.452 4.69375 18.3058 4.69375C19.1596 4.69375 19.7433 5.55588 19.426 6.34824L9.36091 31.4829C9.15889 31.9873 8.67004 32.3181 8.12645 32.3181H1.83118Z" fill="#FFA051"/>
<path d="M135.632 13.9942C135.632 13.2601 136.227 12.665 136.962 12.665H157.442C158.176 12.665 158.771 13.2601 158.771 13.9942V18.1158C158.771 18.8499 158.176 19.4451 157.442 19.4451H136.962C136.227 19.4451 135.632 18.8499 135.632 18.1158V13.9942ZM135.632 25.2963C135.632 25.3033 135.638 25.3089 135.645 25.3089H159.952C160.686 25.3089 161.282 25.9041 161.282 26.6382V30.9889C161.282 31.723 160.686 32.3181 159.952 32.3181H136.962C136.227 32.3181 135.632 31.723 135.632 30.9889V1.57928C135.632 0.84516 136.227 0.250035 136.962 0.250035H159.359C160.093 0.250035 160.688 0.845159 160.688 1.57928V5.92995C160.688 6.66408 160.093 7.2592 159.359 7.2592H135.648C135.639 7.2592 135.632 7.26619 135.632 7.27482V25.2963Z" fill="#FFA051"/>
<path d="M44.3896 23.769C43.8625 23.7883 43.3838 23.4722 43.1715 22.9896L40.4441 16.788L36.3139 7.39663L33.9907 2.11426C33.6044 1.23579 34.2481 0.250035 35.208 0.250035H42.1117C45.0383 0.250035 47.5534 0.723421 49.6569 1.67019C51.7909 2.61697 53.4372 3.99131 54.5957 5.79323C55.7541 7.56461 56.3333 9.67194 56.3333 12.1152C56.3333 14.528 55.7541 16.62 54.5957 18.3914C53.4372 20.1322 51.7909 21.476 49.6569 22.4228C47.7753 23.2424 46.6919 23.6848 44.3896 23.769ZM48.1466 32.3181C47.6194 32.3181 47.1419 32.0067 46.9296 31.5243L42.9133 22.4009C42.5383 21.5489 43.1327 20.5854 44.0627 20.5379L50.509 20.2092C51.0532 20.1815 51.5592 20.4884 51.7859 20.9837L56.112 30.4358C56.515 31.3162 55.8714 32.3181 54.9029 32.3181H48.1466ZM36.3139 7.39663L40.4441 16.788H41.5629C43.453 16.788 44.8554 16.3757 45.77 15.5511C46.715 14.7265 47.1876 13.5812 47.1876 12.1152C47.1876 10.6187 46.715 9.45815 45.77 8.63354C44.8554 7.80894 43.453 7.39663 41.5629 7.39663H36.3139Z" fill="#FFA051"/>
<path d="M73.3514 24.6984C72.666 25.4472 71.4277 25.1828 71.1082 24.2193L69.4325 19.1659C69.2798 18.7056 69.3901 18.1986 69.7201 17.8432L85.6645 0.674888C85.9161 0.403974 86.2692 0.250035 86.639 0.250035H92.9954C94.1539 0.250035 94.7583 1.62803 93.9735 2.47984L82.3093 15.1388L77.279 20.4071L73.3514 24.6984ZM66.0332 32.3181C65.2988 32.3181 64.7035 31.723 64.7035 30.9889V23.7868C64.7035 23.4524 64.8296 23.1302 65.0567 22.8846L71.3602 16.0667C72.1815 15.1784 73.6664 15.7593 73.6664 16.9689V30.9889C73.6664 31.723 73.0711 32.3181 72.3367 32.3181H66.0332ZM86.8418 32.3181C86.4342 32.3181 86.0491 32.1312 85.797 31.8111L76.4752 19.9741C76.0694 19.4588 76.1002 18.7247 76.5476 18.2452L80.5989 13.9035C81.1592 13.303 82.1247 13.349 82.6254 14L95.0685 30.1787C95.7409 31.0528 95.1174 32.3181 94.0144 32.3181H86.8418Z" fill="#FFA051"/>
<path d="M105.225 32.3181C104.491 32.3181 103.895 31.723 103.895 30.9888L103.895 25.0799V7.48826V1.57928C103.895 0.845158 104.491 0.250035 105.225 0.250035H109.989C113.532 0.250035 116.648 0.906667 119.335 2.21993C122.023 3.5332 124.116 5.38093 125.612 7.76313C127.139 10.1453 127.903 12.9856 127.903 16.2841C127.903 19.552 127.139 22.3923 125.612 24.805C124.116 27.1872 122.023 29.0349 119.335 30.3482C116.648 31.6615 113.532 32.3181 109.989 32.3181H105.225ZM103.895 25.0799H109.622C111.455 25.0799 113.043 24.7439 114.387 24.072C115.762 23.3696 116.831 22.3617 117.594 21.0485C118.358 19.7047 118.74 18.1165 118.74 16.2841C118.74 14.4211 118.358 12.8329 117.594 11.5197C116.831 10.2064 115.762 9.21382 114.387 8.54192C113.043 7.83948 111.455 7.48826 109.622 7.48826H103.895V25.0799Z" fill="#FFA051"/>
<path d="M180.42 32.3181C179.887 32.3181 179.406 32.0002 179.197 31.5102L166.654 2.10061C166.28 1.22376 166.923 0.250035 167.877 0.250035H174.766C175.303 0.250035 175.788 0.573473 175.994 1.0697L186.417 26.173C186.78 27.0483 186.137 28.0118 185.189 28.0118H183.427C182.474 28.0118 181.83 27.0394 182.203 26.1627L192.874 1.0594C193.083 0.568661 193.565 0.250035 194.098 0.250035H200.169C201.123 0.250035 201.767 1.22505 201.391 2.10208L188.806 31.5117C188.597 32.0008 188.116 32.3181 187.584 32.3181H180.42Z" fill="#FFA051"/>
<path d="M73.674 1.57925V5.21018C73.674 5.5463 73.5466 5.86995 73.3175 6.11595L67.0014 12.8976C66.1785 13.7811 64.6985 13.199 64.6985 11.9918V1.57925C64.6985 0.845123 65.2939 0.25 66.0282 0.25L72.3443 0.250001C73.0787 0.250001 73.674 0.845125 73.674 1.57925Z" fill="#FFA051"/>
</svg>
