<svg width="201" height="33" viewBox="0 0 201 33" fill="none" xmlns="http://www.w3.org/2000/svg">
<path d="M1.33118 32.0681C0.370913 32.0681 -0.272739 31.0817 0.114226 30.2032L13.068 0.793626C13.2804 0.311338 13.7578 3.48952e-05 14.2849 3.48952e-05H21.4649C21.9915 3.48952e-05 22.4684 0.310666 22.6812 0.792174L35.6769 30.2018C36.0652 31.0805 35.4215 32.0681 34.4606 32.0681H27.9851C27.4415 32.0681 26.9527 31.7373 26.7506 31.2329L16.6856 6.09824C16.3683 5.30588 16.952 4.44375 17.8058 4.44375C18.6596 4.44375 19.2433 5.30588 18.926 6.09824L8.86091 31.2329C8.65889 31.7373 8.17004 32.0681 7.62645 32.0681H1.33118Z" fill="#202124"/>
<path d="M135.132 13.7442C135.132 13.0101 135.727 12.415 136.462 12.415H156.942C157.676 12.415 158.271 13.0101 158.271 13.7442V17.8658C158.271 18.5999 157.676 19.1951 156.942 19.1951H136.462C135.727 19.1951 135.132 18.5999 135.132 17.8658V13.7442ZM135.132 25.0463C135.132 25.0533 135.138 25.0589 135.145 25.0589H159.452C160.186 25.0589 160.782 25.6541 160.782 26.3882V30.7389C160.782 31.473 160.186 32.0681 159.452 32.0681H136.462C135.727 32.0681 135.132 31.473 135.132 30.7389V1.32928C135.132 0.59516 135.727 3.48952e-05 136.462 3.48952e-05H158.859C159.593 3.48952e-05 160.188 0.595159 160.188 1.32928V5.67995C160.188 6.41408 159.593 7.0092 158.859 7.0092H135.148C135.139 7.0092 135.132 7.01619 135.132 7.02482V25.0463Z" fill="#202124"/>
<path d="M43.8896 23.519C43.3625 23.5383 42.8838 23.2222 42.6715 22.7396L39.9441 16.538L35.8139 7.14663L33.4907 1.86426C33.1044 0.985788 33.7481 3.48952e-05 34.708 3.48952e-05H41.6117C44.5383 3.48952e-05 47.0534 0.473421 49.1569 1.42019C51.2909 2.36697 52.9372 3.74131 54.0957 5.54323C55.2541 7.31461 55.8333 9.42194 55.8333 11.8652C55.8333 14.278 55.2541 16.37 54.0957 18.1414C52.9372 19.8822 51.2909 21.226 49.1569 22.1728C47.2753 22.9924 46.1919 23.4348 43.8896 23.519ZM47.6466 32.0681C47.1194 32.0681 46.6419 31.7567 46.4296 31.2743L42.4133 22.1509C42.0383 21.2989 42.6327 20.3354 43.5627 20.2879L50.009 19.9592C50.5532 19.9315 51.0592 20.2384 51.2859 20.7337L55.612 30.1858C56.015 31.0662 55.3714 32.0681 54.4029 32.0681H47.6466ZM35.8139 7.14663L39.9441 16.538H41.0629C42.953 16.538 44.3554 16.1257 45.27 15.3011C46.215 14.4765 46.6876 13.3312 46.6876 11.8652C46.6876 10.3687 46.215 9.20815 45.27 8.38354C44.3554 7.55894 42.953 7.14663 41.0629 7.14663H35.8139Z" fill="#202124"/>
<path d="M72.8514 24.4484C72.166 25.1972 70.9277 24.9328 70.6082 23.9693L68.9325 18.9159C68.7798 18.4556 68.8901 17.9486 69.2201 17.5932L85.1645 0.424888C85.4161 0.153974 85.7692 3.48952e-05 86.139 3.48952e-05H92.4954C93.6539 3.48952e-05 94.2583 1.37803 93.4735 2.22984L81.8093 14.8888L76.779 20.1571L72.8514 24.4484ZM65.5332 32.0681C64.7988 32.0681 64.2035 31.473 64.2035 30.7389V23.5368C64.2035 23.2024 64.3296 22.8802 64.5567 22.6346L70.8602 15.8167C71.6815 14.9284 73.1664 15.5093 73.1664 16.7189V30.7389C73.1664 31.473 72.5711 32.0681 71.8367 32.0681H65.5332ZM86.3418 32.0681C85.9342 32.0681 85.5491 31.8812 85.297 31.5611L75.9752 19.7241C75.5694 19.2088 75.6002 18.4747 76.0476 17.9952L80.0989 13.6535C80.6592 13.053 81.6247 13.099 82.1254 13.75L94.5685 29.9287C95.2409 30.8028 94.6174 32.0681 93.5144 32.0681H86.3418Z" fill="#202124"/>
<path d="M104.725 32.0681C103.991 32.0681 103.395 31.473 103.395 30.7388L103.395 24.8299V7.23826V1.32928C103.395 0.595158 103.991 3.48952e-05 104.725 3.48952e-05H109.489C113.032 3.48952e-05 116.148 0.656667 118.835 1.96993C121.523 3.2832 123.616 5.13093 125.112 7.51313C126.639 9.89533 127.403 12.7356 127.403 16.0341C127.403 19.302 126.639 22.1423 125.112 24.555C123.616 26.9372 121.523 28.7849 118.835 30.0982C116.148 31.4115 113.032 32.0681 109.489 32.0681H104.725ZM103.395 24.8299H109.122C110.955 24.8299 112.543 24.4939 113.887 23.822C115.262 23.1196 116.331 22.1117 117.094 20.7985C117.858 19.4547 118.24 17.8665 118.24 16.0341C118.24 14.1711 117.858 12.5829 117.094 11.2697C116.331 9.95641 115.262 8.96382 113.887 8.29192C112.543 7.58948 110.955 7.23826 109.122 7.23826H103.395V24.8299Z" fill="#202124"/>
<path d="M179.92 32.0681C179.387 32.0681 178.906 31.7502 178.697 31.2602L166.154 1.85061C165.78 0.973763 166.423 3.48952e-05 167.377 3.48952e-05H174.266C174.803 3.48952e-05 175.288 0.323473 175.494 0.819698L185.917 25.923C186.28 26.7983 185.637 27.7618 184.689 27.7618H182.927C181.974 27.7618 181.33 26.7894 181.703 25.9127L192.374 0.8094C192.583 0.318661 193.065 3.48952e-05 193.598 3.48952e-05H199.669C200.623 3.48952e-05 201.267 0.975054 200.891 1.85208L188.306 31.2617C188.097 31.7508 187.616 32.0681 187.084 32.0681H179.92Z" fill="#202124"/>
<path d="M73.174 1.32925V4.96018C73.174 5.2963 73.0466 5.61995 72.8175 5.86595L66.5014 12.6476C65.6785 13.5311 64.1985 12.949 64.1985 11.7418V1.32925C64.1985 0.595123 64.7939 -6.41791e-08 65.5282 0L71.8443 5.5198e-07C72.5787 6.16159e-07 73.174 0.595125 73.174 1.32925Z" fill="#202124"/>
</svg>
