<svg width="1956" height="1178" viewBox="0 0 1956 1178" fill="none" xmlns="http://www.w3.org/2000/svg">
<path fill-rule="evenodd" clip-rule="evenodd" d="M977.979 8.84017e-06C984.229 -0.00529834 990.484 2.37901 995.257 7.15528L1399.95 412.382C1409.45 421.9 1409.48 437.322 1400.01 446.872L1216.21 632.195C1206.75 641.745 1206.77 657.167 1216.27 666.685L1290.1 740.604C1299.62 750.146 1299.62 765.613 1290.1 775.154L1213.29 852.067C1203.76 861.608 1203.76 877.076 1213.29 886.617L1288.58 962.001C1298.1 971.543 1313.55 971.542 1323.08 962.001L1398.36 886.617C1407.9 877.076 1423.34 877.076 1432.87 886.617L1619.47 1073.47C1629 1083.01 1644.45 1083.01 1653.98 1073.47L1730.75 996.594C1740.3 987.034 1740.28 971.543 1730.71 962.001L1434.47 666.744C1424.91 657.21 1424.89 641.712 1434.43 632.155L1509.68 556.809C1519.21 547.268 1534.66 547.268 1544.19 556.809L1948.85 961.999C1958.38 971.541 1958.38 987.014 1948.85 996.556L1767.64 1178H188.296L7.14648 996.613C-2.40528 987.053 -2.3788 971.533 7.20605 962L413.278 558.217C422.816 548.732 438.218 548.758 447.723 558.274L521.545 632.194C531.074 641.734 531.074 657.204 521.545 666.744L225.146 963.53C215.618 973.072 215.618 988.537 225.146 998.079L300.435 1073.47C309.964 1083.01 325.412 1083.01 334.94 1073.47L521.664 886.498C531.146 877.004 546.502 876.952 556.049 886.38L632.864 962.243C642.411 971.668 657.768 971.613 667.249 962.125L742.655 886.617C752.183 877.076 752.183 861.608 742.655 852.067L667.367 776.681C657.839 767.14 657.839 751.672 667.367 742.131L742.655 666.744C752.183 657.204 752.183 641.734 742.655 632.194L557.545 446.843C548.029 437.314 548.015 421.867 557.515 412.321L960.715 7.18556C965.479 2.40119 971.728 9.93578e-05 977.979 8.84017e-06ZM1105.3 688.12C1104.91 688.12 1104.51 688.138 1104.13 688.175C1103.74 688.212 1103.35 688.267 1102.97 688.343C1102.58 688.417 1102.2 688.51 1101.82 688.622C1101.45 688.734 1101.07 688.863 1100.71 689.013C1100.34 689.162 1099.98 689.329 1099.62 689.516C1099.27 689.702 1098.92 689.907 1098.58 690.131C1098.25 690.354 1097.92 690.598 1097.6 690.858C1097.28 691.119 1096.97 691.399 1096.67 691.697L1038.44 749.998C1038.15 750.296 1037.86 750.607 1037.6 750.927C1037.34 751.246 1037.1 751.576 1036.88 751.914C1036.66 752.253 1036.45 752.601 1036.27 752.955C1036.08 753.31 1035.91 753.673 1035.76 754.04C1035.62 754.408 1035.49 754.781 1035.38 755.158C1035.26 755.536 1035.17 755.918 1035.09 756.303C1035.02 756.688 1034.97 757.076 1034.93 757.465C1034.89 757.854 1034.87 758.245 1034.87 758.636C1034.87 759.026 1034.89 759.417 1034.93 759.807C1034.97 760.196 1035.02 760.584 1035.09 760.969C1035.17 761.353 1035.26 761.736 1035.38 762.113C1035.49 762.491 1035.62 762.865 1035.76 763.232C1035.91 763.6 1036.08 763.962 1036.27 764.316C1036.45 764.671 1036.66 765.019 1036.88 765.357C1037.1 765.696 1037.34 766.026 1037.6 766.346C1037.86 766.665 1038.15 766.975 1038.44 767.273L1096.67 825.576C1096.97 825.874 1097.28 826.154 1097.6 826.415C1097.92 826.676 1098.25 826.918 1098.58 827.142C1098.92 827.365 1099.27 827.57 1099.62 827.757C1099.98 827.943 1100.34 828.11 1100.71 828.26C1101.07 828.409 1101.45 828.538 1101.82 828.65C1102.2 828.762 1102.58 828.856 1102.97 828.93C1103.35 829.003 1103.74 829.061 1104.13 829.098C1104.51 829.135 1104.91 829.153 1105.3 829.153C1105.69 829.153 1106.08 829.135 1106.46 829.098C1106.85 829.061 1107.24 829.005 1107.63 828.93C1108.01 828.855 1108.39 828.761 1108.77 828.65C1109.15 828.538 1109.52 828.409 1109.89 828.26C1110.25 828.111 1110.61 827.943 1110.97 827.757C1111.32 827.57 1111.67 827.365 1112.01 827.142C1112.35 826.918 1112.67 826.676 1112.99 826.415C1113.31 826.154 1113.62 825.874 1113.92 825.576L1172.15 767.273C1172.45 766.976 1172.73 766.665 1172.99 766.346C1173.25 766.026 1173.49 765.696 1173.71 765.357C1173.94 765.019 1174.14 764.671 1174.33 764.316C1174.51 763.962 1174.68 763.6 1174.83 763.232C1174.97 762.865 1175.11 762.491 1175.22 762.113C1175.33 761.736 1175.42 761.353 1175.5 760.969C1175.57 760.584 1175.63 760.196 1175.66 759.807C1175.7 759.417 1175.72 759.026 1175.72 758.636C1175.72 758.245 1175.7 757.854 1175.66 757.465C1175.63 757.076 1175.57 756.688 1175.5 756.303C1175.42 755.918 1175.33 755.536 1175.22 755.158C1175.11 754.78 1174.98 754.408 1174.83 754.04C1174.68 753.673 1174.51 753.31 1174.33 752.955C1174.14 752.601 1173.94 752.253 1173.71 751.914C1173.49 751.576 1173.25 751.246 1172.99 750.927C1172.73 750.607 1172.45 750.296 1172.15 749.998L1113.92 691.697C1113.62 691.399 1113.31 691.119 1112.99 690.858C1112.67 690.598 1112.35 690.354 1112.01 690.131C1111.67 689.907 1111.32 689.702 1110.97 689.516C1110.61 689.329 1110.25 689.162 1109.89 689.013C1109.52 688.864 1109.15 688.735 1108.77 688.622C1108.39 688.511 1108.01 688.418 1107.63 688.343C1107.24 688.269 1106.85 688.212 1106.46 688.175C1106.08 688.138 1105.69 688.12 1105.3 688.12ZM849.113 688.138C845.85 688.138 842.588 689.388 840.088 691.89L782.396 749.608C777.396 754.611 777.396 762.667 782.396 767.67L840.088 825.391C845.088 830.394 853.139 830.394 858.14 825.391L915.829 767.67C920.83 762.667 920.83 754.611 915.829 749.608L858.14 691.89C855.64 689.388 852.376 688.138 849.113 688.138Z" fill="#FE7311"/>
</svg>
